Coordinates
version=1
nRows=38
nColumns=12
inDegrees=yes

Units are S.I. units (second, meters, Newtons, ...)
Angles are in degrees

endheader
time	SC_y	SC_z	SC_x	AC_y	AC_z	AC_x	GH_y	GH_z	GH_yy	EL_x	PS_y
       0.0              -25.25          38.04          23.38           45.6          3.719           19.7          94.28         -1.338         -76.83          71.51          123.3
   0.03008              -25.24          38.04          23.38          45.59           3.72          19.69          94.27         -1.333         -76.83           71.5          123.3
   0.06015              -25.24          38.03          23.39          45.59           3.72          19.69          94.26         -1.328         -76.84          71.49          123.3
   0.09023              -25.24          38.03          23.39          45.59          3.721          19.68          94.25         -1.323         -76.84          71.48          123.3
    0.1203              -25.24          38.03           23.4          45.59          3.722          19.67          94.24         -1.317         -76.85          71.47          123.3
    0.1504              -25.24          38.02           23.4          45.59          3.723          19.67          94.22         -1.311         -76.85          71.46          123.3
    0.1805              -25.23          38.02          23.41          45.59          3.724          19.66          94.21         -1.305         -76.86          71.44          123.3
    0.2105              -25.23          38.01          23.42          45.58          3.725          19.65           94.2         -1.298         -76.87          71.43          123.3
    0.2406              -25.23          38.01          23.42          45.58          3.726          19.64          94.18         -1.291         -76.88          71.41          123.3
    0.2707              -25.22           38.0          23.43          45.58          3.727          19.63          94.17         -1.283         -76.89           71.4          123.3
    0.3008              -25.22          37.99          23.44          45.58          3.728          19.62          94.15         -1.275         -76.89          71.38          123.4
    0.3308              -25.22          37.99          23.45          45.57          3.729          19.61          94.14         -1.265          -76.9          71.36          123.4
    0.3609              -25.21          37.98          23.45          45.57          3.731           19.6          94.12         -1.256         -76.92          71.34          123.4
     0.391              -25.21          37.97          23.46          45.57          3.732          19.59           94.1         -1.245         -76.93          71.32          123.4
    0.4211               -25.2          37.96          23.47          45.57          3.734          19.57          94.07         -1.234         -76.94           71.3          123.4
    0.4511               -25.2          37.95          23.49          45.56          3.735          19.56          94.05         -1.222         -76.95          71.27          123.4
    0.4812              -25.19          37.94           23.5          45.56          3.737          19.54          94.02         -1.208         -76.97          71.24          123.4
    0.5113              -25.18          37.93          23.51          45.55          3.739          19.53          93.99         -1.193         -76.98          71.21          123.4
    0.5414              -25.18          37.92          23.53          45.55          3.742          19.51          93.96         -1.178          -77.0          71.18          123.4
    0.5714              -25.17          37.91          23.54          45.54          3.744          19.49          93.93          -1.16         -77.02          71.15          123.4
    0.6015              -25.16          37.89          23.56          45.54          3.747          19.46          93.89         -1.141         -77.04          71.11          123.4
    0.6316              -25.15          37.88          23.58          45.53           3.75          19.44          93.85          -1.12         -77.07          71.06          123.4
    0.6617              -25.14          37.86           23.6          45.53          3.753          19.41           93.8         -1.096         -77.09          71.01          123.4
    0.6918              -25.13          37.84          23.63          45.52          3.757          19.38          93.75         -1.071         -77.12          70.96          123.4
    0.7218              -25.12          37.82          23.65          45.51          3.761          19.34           93.7         -1.042         -77.15           70.9          123.4
    0.7519              -25.11          37.79          23.68           45.5          3.765          19.31          93.63          -1.01         -77.19          70.83          123.4
     0.782              -25.09          37.77          23.71          45.49           3.77          19.26          93.56        -0.9739         -77.23          70.76          123.4
    0.8121              -25.07          37.74          23.75          45.48          3.776          19.21          93.48        -0.9335         -77.27          70.68          123.4
    0.8421              -25.05           37.7          23.79          45.47          3.782          19.16          93.39        -0.8878         -77.32          70.58          123.4
    0.8722              -25.03          37.66          23.84          45.45           3.79           19.1          93.29         -0.836         -77.38          70.48          123.5
    0.9023              -25.01          37.62           23.9          45.43          3.798          19.03          93.18        -0.7768         -77.44          70.35          123.5
    0.9324              -24.98          37.57          23.96          45.42          3.808          18.95          93.04        -0.7089         -77.52          70.21          123.5
    0.9624              -24.94          37.51          24.03          45.39          3.819          18.85          92.89        -0.6305         -77.61          70.05          123.5
    0.9925               -24.9          37.44          24.12          45.37          3.831          18.74          92.71        -0.5395         -77.71          69.86          123.5
     1.023              -24.86          37.36          24.21          45.34          3.846          18.62           92.5        -0.4329         -77.82          69.64          123.6
     1.053               -24.8          37.26          24.33           45.3          3.864          18.46          92.26        -0.3073         -77.96          69.39          123.6
     1.083              -24.74          37.15          24.47          45.26          3.885          18.29          91.96         -0.158         -78.13          69.08          123.6
     1.113              -24.66          37.02          24.63          45.21           3.91          18.07          91.61        0.02099         -78.33          68.71          123.7
